<svg width="619" height="497" viewBox="0 0 619 497" fill="none" xmlns="http://www.w3.org/2000/svg">
<path d="M25.7855 369H90.9221C93.0139 369 94.9962 368.064 96.3259 366.45L139.903 313.528C140.886 312.335 142.237 311.5 143.744 311.155L230.82 291.214C231.283 291.108 231.734 290.955 232.166 290.758L495.133 170.64C496.67 169.938 497.901 168.703 498.599 167.165L531.613 94.3944C531.763 94.064 531.887 93.7223 531.984 93.3726L546.541 40.8702C547.777 36.4106 544.423 32 539.795 32H99.8032C96.5396 32 93.709 34.2553 92.98 37.4364L18.9624 360.436C17.9579 364.82 21.2883 369 25.7855 369Z" fill="#F6C445" stroke="#F6C445"/>
<path d="M593.214 129H528.078C525.986 129 524.004 129.936 522.674 131.55L479.097 184.472C478.114 185.665 476.763 186.5 475.256 186.845L388.18 206.786C387.717 206.892 387.266 207.045 386.834 207.242L123.867 327.36C122.33 328.062 121.099 329.297 120.401 330.835L87.3865 403.606C87.2366 403.936 87.1125 404.278 87.0156 404.627L72.4592 457.13C71.2228 461.589 74.577 466 79.2048 466H519.197C522.46 466 525.291 463.745 526.02 460.564L600.038 137.564C601.042 133.18 597.712 129 593.214 129Z" fill="#B0E0E6" stroke="#B0E0E6"/>
<path d="M498 161C499.921 159.839 504.045 157.327 504.364 155.506C504.534 154.536 508 149.921 508 151.233C508 151.511 503.984 155.161 503.455 155.37C501.759 156.04 499.818 159.036 499.818 160.39" stroke="white" stroke-width="8" stroke-linecap="round"/>
<path d="M156.617 307.531C156.617 302.52 174.288 295.175 178.656 293.367C182.92 291.603 186.176 287.326 190.747 286.78C192.996 286.511 194.154 284.686 195.798 283.239C196.535 282.59 198.812 282.333 198.323 282.333C192.828 282.333 184.177 286.361 179.345 289.085C174.193 291.989 169.243 292.641 163.81 294.52C161.262 295.402 153.959 297.71 155.852 295.673C156.986 294.453 161.016 293.306 162.433 292.544C170.095 288.421 177.675 284.124 185.697 280.85C199.408 275.254 213.324 270.28 226.943 264.545C231.925 262.448 237.121 260.93 242.019 258.616C244.206 257.583 250.861 257.191 248.753 255.981C244.254 253.399 233.154 255.849 228.474 256.64C220.854 257.928 213.572 261.203 206.052 263.063C203.454 263.706 200.071 264.468 198.17 266.769C196.266 269.074 218.843 268.209 219.444 268.169C234.494 267.166 251.662 265.964 265.971 260.099C277.253 255.474 251.024 259.124 247.988 260.099C241.482 262.187 227.657 264.417 223.041 270.804C221.019 273.601 229.664 270.975 232.912 270.392C243.699 268.458 254.39 266.516 265.053 263.887C266.732 263.473 283.278 258.299 274.618 257.134C262.047 255.443 246.017 253.349 235.438 262.404C223.686 272.464 275.074 269.423 278.139 268.992C281.402 268.533 317.625 263.513 317.625 255.569C317.625 246.316 266.903 257.614 261.609 259.193C250.891 262.389 247.492 265.043 263.752 263.722C291.744 261.449 322.194 258.522 348.847 248.24C349.873 247.845 365.605 242.557 363.999 240.829C359.632 236.13 348.872 236.273 343.567 235.806C329.388 234.557 315.776 235.473 301.861 238.523C296.721 239.65 280.859 246.593 295.663 246.593C311.784 246.593 327.866 244.238 343.644 240.829C353.942 238.604 364.493 234.059 375.019 233.418C376.629 233.32 379.527 233.178 378.08 230.453C375.394 225.396 361.363 227.513 357.265 227.489C342.117 227.399 317.92 226.19 308.289 242.311C298.05 259.451 348.668 244.195 352.674 242.888C355.332 242.02 403.281 227.671 397.058 217.772C392.847 211.072 375.287 214.057 369.892 214.478C355.394 215.608 341.428 218.359 328.033 224.524C323.173 226.761 314.546 229.531 311.044 234.241C305.127 242.2 321.494 237.176 323.135 236.712C335.232 233.286 352.409 227.159 359.714 214.807C364.724 206.336 328.351 214.562 326.961 214.972C310.421 219.85 297.501 228.73 282.577 237.206C277.804 239.916 265.62 249.149 279.21 243.3C292.909 237.403 305.878 228.751 315.483 216.536C317.67 213.755 312.989 214.28 311.656 214.478C298.522 216.421 284.66 220.848 272.935 227.489C272.183 227.914 247.933 243.462 253.191 244.617C261.307 246.399 284.932 224.046 268.343 227.077C249.532 230.514 231.48 245.389 220.133 261.416C219.816 261.864 212.921 270.411 214.317 271.298C221.396 275.799 245.937 247.593 249.977 243.794C250.884 242.941 278.483 220.436 275.537 216.289C273.342 213.201 262.826 217.256 260.614 218.183C250.121 222.585 241.094 231.314 232.071 238.359C230.163 239.848 212.828 255.044 217.454 259.193C221.215 262.565 249.391 235.333 253.804 230.453C255.842 228.199 256.267 225.729 252.426 226.418C244.462 227.847 237.684 233.795 231.305 238.688C226.543 242.341 208.067 252.959 209.19 261.416C209.688 265.172 218.419 262.743 217.148 257.958C215.889 253.215 205.164 260.655 203.45 261.252C196.854 263.548 202.597 267.51 207.124 267.51C227.846 267.51 246.494 260.612 266.507 257.299C279.835 255.092 251.215 260.46 249.212 261.004C234.247 265.075 217.408 271.396 201.767 271.957C198.303 272.081 194.013 274.826 200.236 274.921C216.861 275.177 233.503 274.921 250.13 274.921C262.76 274.921 226.283 284.266 213.858 286.697C213.487 286.77 210.358 286.78 212.174 286.78C218.648 286.78 225.151 286.985 231.611 286.45C237.467 285.965 254.926 284.102 249.059 283.815C232.579 283.009 215.776 286.263 199.548 288.921C197.175 289.309 185.808 290.275 195.951 289.085C212.336 287.164 228.816 286.131 245.08 283.156C246.795 282.842 253.219 281.524 255.64 281.015C256.907 280.749 259.94 280.912 259.313 279.698C257.491 276.167 237.182 277.907 234.06 277.886C231.291 277.868 217.75 275.84 215.465 278.709C213.999 280.549 219.872 279.849 222.122 279.945C242.163 280.8 262.418 279.819 282.424 278.709C311.032 277.123 341.267 276.081 368.897 267.016C375.103 264.98 382.896 263.28 388.411 259.44C390.257 258.155 390.788 257.182 388.181 257.134C378.153 256.948 368.052 256.936 358.03 257.299C333.842 258.174 310.187 264.588 286.097 266.028C253.015 268.006 357.525 267.818 383.743 246.017C399.183 233.178 350.823 231.884 345.174 232.677C339.389 233.489 314.154 241.68 332.777 244.617C353.23 247.843 375.363 241.76 395.068 236.382C399.083 235.287 406.32 234.327 409.149 230.453C412.842 225.395 394.309 229.128 393.844 229.218C389.551 230.049 355.266 237.229 356.73 246.676C357.495 251.62 378.505 244.449 379.457 244.123C388.629 240.983 398.329 236.948 406.318 231.03C412.787 226.236 406.282 226.819 402.568 227.818C391.954 230.673 376.658 235.103 370.427 245.77C369.775 246.886 366.52 251.381 367.979 253.017C378.042 264.297 406.564 243.986 415.118 238.77C432.23 228.336 399.05 237.471 394.762 239.841C388.039 243.558 378.013 250.195 375.937 258.946C374.057 266.872 385.495 261.01 387.722 259.769C398.795 253.601 409.383 244.555 417.796 234.653C419.105 233.113 423.784 228.629 422.923 226.006C419.3 214.96 388.537 233.086 384.814 240.006C378.111 252.465 416.254 236.222 419.327 234.324C423.98 231.449 430.548 228.173 432.872 222.548C435.77 215.531 418.218 217.558 416.189 217.772C400.215 219.451 381.786 223.539 366.907 230.453C363.065 232.239 366.164 233.206 368.744 233.335C380.424 233.92 391.693 230.736 402.491 226.171C416.861 220.096 408.261 218.487 397.135 219.418C386.833 220.281 376.591 221.221 366.601 224.195C364.038 224.958 353.159 228.029 362.316 227.159C372.695 226.174 382.928 223.689 393.155 221.642C398.222 220.628 405.256 220.345 409.761 217.113C413.524 214.413 405.143 213.574 404.481 213.489C391.749 211.864 379.175 213.745 366.831 217.113C360.943 218.719 332.299 224.228 354.357 219.089C370.908 215.233 387.671 212.751 404.404 210.031C410.953 208.966 419.603 208.24 425.372 204.102C429.554 201.102 415.321 203.73 410.297 203.855C408.125 203.908 387.697 205.397 393.232 204.925C413.193 203.224 431.878 200.149 451.161 194.961C463.487 191.645 413.434 200.808 413.434 200.808C413.434 200.808 444.5 198.579 458.814 192.655C460.332 192.027 464.385 192.559 465.165 191.091C466.089 189.352 470.094 185.931 469.297 185.985C465.058 186.27 462.24 193.913 459.043 196.361C449.5 203.668 438.615 208.521 429.428 216.372C424.126 220.902 419.216 227.76 413.74 231.688C403.814 238.81 432.676 215.895 443.126 209.701C443.957 209.209 454.563 202.662 450.013 204.102C444.531 205.837 434.801 213.921 431.647 219.254C430.482 221.224 448.494 210.56 451.467 208.96C453.145 208.057 465.464 199.218 460.115 202.619C450.67 208.625 440.029 217.312 433.79 227.159C432.636 228.98 427.867 232.627 429.887 232.265C435.557 231.248 441.93 221.181 446.34 217.442C459.4 206.369 439.783 222.907 436.774 225.348C428.014 232.454 403.37 255.946 412.057 248.735C418.489 243.395 425.942 237.677 431.8 231.606C432.303 231.085 435.386 228.494 433.101 229.877C425.333 234.579 417.949 239.759 410.45 244.947C405.83 248.142 400.058 250.4 395.834 254.17C390.941 258.536 401.428 254.275 402.032 253.922C403.928 252.818 429.128 237.679 427.668 236.712C425.198 235.076 417.061 238.148 414.659 238.853C405.385 241.574 396.47 246.326 387.875 250.876C386.08 251.826 363.958 262.687 374.942 259.028C384.478 255.852 395.343 252.847 403.716 246.841C412.541 240.509 382.592 249.792 372.417 253.017C371.532 253.297 347.958 261.809 348.694 262.734C349.998 264.37 372 257.134 376.09 257.134C377.773 257.134 372.82 257.991 371.193 258.452C359.612 261.726 348.657 266.447 337.828 271.874C330.632 275.481 323.196 279.005 315.33 280.521C312.66 281.035 304.659 282.333 307.371 282.333C316.356 282.333 324.511 275.558 333.389 274.921C334.088 274.871 338.536 274.583 338.057 272.78C337.292 269.897 321.155 276.016 319.692 276.486C310.593 279.409 283.144 287.286 292.525 285.709C299.909 284.467 307.158 282.381 314.564 281.18C317.242 280.746 319.034 279.445 315.177 279.368C305.16 279.169 295.328 280.85 285.332 280.85C273.64 280.85 294.114 280.85 296.887 280.85C307.01 280.85 308.89 281.33 297.117 284.721C286.369 287.816 275.414 290.544 264.364 292.05C258.732 292.818 253.03 292.612 247.682 294.85C236.454 299.548 295.083 286.78 283.036 286.78C263.033 286.78 203.239 285.135 223.041 288.179C230.414 289.313 238.454 288.262 245.922 288.262C255.504 288.262 226.727 288.746 217.225 290.073C213.39 290.609 209.697 291.883 205.899 292.626C202.837 293.225 212.123 292.709 215.235 292.709C223.423 292.709 231.611 292.709 239.8 292.709C263.405 292.709 191.504 291.439 169.32 300.12C165.822 301.489 162.967 301.387 159.372 301.602C152.864 301.991 144.472 310.829 138.94 313.955C135.289 316.017 124.753 323.177 133.201 315.602C138.304 311.025 143.138 302.25 149.424 299.791C153.768 298.091 143.047 307.004 140.088 310.825C134.732 317.742 134.725 315.871 140.853 310.414C146.784 305.131 151.167 298.026 157.153 292.873C160.923 289.628 149.658 299.448 146.21 303.085C144.948 304.415 137.651 314.557 141.159 308.684C145.44 301.518 152.486 297.723 157.229 291.226C160.416 286.862 164.878 285.368 168.249 281.015C171.35 277.01 175.365 272.87 178.962 269.322C192.189 256.274 205.399 247.267 222.428 241.158C224.392 240.454 214.352 241.992 212.48 242.97C204.275 247.259 197.458 254.689 191.053 261.581C189.364 263.399 181.17 272.216 187.151 265.781C194.8 257.549 203.228 247.984 212.021 241.158C219.512 235.344 233.358 231.938 239.264 224.524C242.504 220.456 247.28 222.743 250.207 218.019C251.236 216.357 256.193 215.537 254.11 215.63C247.635 215.921 238.42 223.372 232.912 226.006C225.626 229.491 219.96 235.571 213.092 239.676C206.068 243.875 201.435 252.523 193.885 255.569C185.075 259.124 177.733 269.21 170.392 275.251C167.402 277.711 164.956 280.127 161.821 282.333C159.847 283.721 152.769 287.842 157.459 281.674C160.18 278.095 164.517 274.483 167.713 271.216C171.862 266.974 178.672 259.825 183.86 257.463C189.1 255.078 192.884 249.172 197.941 246.841C201.008 245.426 204.574 244.686 207.047 242.229C211.286 238.018 217.922 240.041 222.122 236.382C225.841 233.143 229.721 233.875 234.06 232.265C239.341 230.305 243.526 228.246 248.983 226.665C260.075 223.451 271.287 220.329 282.271 216.783C286.845 215.307 292.353 214.564 297.117 214.148C302.181 213.706 306.816 210.198 312.192 209.619C317.998 208.994 323.675 205.672 329.487 204.513C335.634 203.288 341.215 202.29 347.47 202.29C361.091 202.29 374.713 202.29 388.334 202.29C393.002 202.29 407.006 202.29 402.338 202.29C391.878 202.29 378.791 205.49 369.05 209.372C364.86 211.042 365.457 214.216 369.662 215.63C381.086 219.472 394.653 226.187 406.547 227.406C422.756 229.067 388.962 251.967 384.508 254.17C367.952 262.355 356.461 278.175 337.063 279.368C329.791 279.815 323.452 282.27 317.09 285.956C313.688 287.927 307.295 287.462 303.392 288.262C298.205 289.325 293.584 289.744 288.24 289.744C280.432 289.744 273.346 288.262 265.512 288.262C255.665 288.262 245.892 289.744 236.203 289.744C232.51 289.744 231.232 292.36 235.438 292.709C241.607 293.219 247.281 295.673 253.727 295.673C265.633 295.673 278.675 296.062 290.229 293.038C308.378 288.288 328.355 290.733 345.633 283.815C358.275 278.753 371.732 279.471 384.967 275.251C390.905 273.358 397.626 275.252 403.792 273.357C406.534 272.514 411.495 263.387 414.2 263.063C418.618 262.535 426.278 255.791 429.275 252.028C432.406 248.098 440.289 247.046 443.126 242.805C446.471 237.806 452.027 234.581 454.146 228.312C455.003 225.775 460.562 218.852 462.716 217.113C466.825 213.797 469.075 208.518 472.052 204.513C473.715 202.276 477.079 194.127 478.94 193.067C481.806 191.434 485.179 182.824 485.903 179.315C486.997 174.018 493.575 169.961 494.092 165.233C494.443 162.021 502.757 157.269 494.015 165.892C488.918 170.92 479.656 181.31 473.124 184.173C469.204 185.892 467.338 189.674 463.788 191.585C460.776 193.205 459.605 192.238 456.977 195.537C455.388 197.532 452.072 198.642 450.013 200.067C444.053 204.189 439.282 209.3 433.025 213.16C420.121 221.121 408.805 232.744 395.681 240.088C385.035 246.045 372.656 257.134 360.479 257.134" stroke="white" stroke-width="12" stroke-linecap="round"/>
<path d="M449 228C445.078 230.095 441.215 233.174 437.914 236.26C434.031 239.89 428.792 242.331 424.09 244.519C419.874 246.481 415.569 248.233 411.367 250.198C410.88 250.425 407.856 252.07 409.998 251.689C412.953 251.163 415.787 249.921 418.722 249.28C420.794 248.827 420.153 249.682 418.829 250.828C411.561 257.121 403.332 259.251 394.859 262.587C394.243 262.829 384.539 266.237 386.188 267.118C387.923 268.045 391.853 267.24 393.624 266.946C395.808 266.583 398.21 265.168 400.388 265.168C401.886 265.168 397.233 265.7 396.174 266.831C394.744 268.359 397.687 268.059 398.268 267.749" stroke="white" stroke-width="10" stroke-linecap="round"/>
<path d="M455.201 210.289C460.383 207.405 464.718 202.961 469.389 199.286C471.876 197.33 474.494 195.944 476.694 193.617C477.903 192.338 474.084 194.48 473.62 194.84C471.646 196.371 469.659 198.194 467.498 199.397C464.962 200.808 472.287 191.892 470.992 191.283C470.112 190.869 467.829 190.214 467.287 189.477C466.557 188.485 467.706 186.071 466.552 185.393C463.693 183.713 459.963 186.743 457.303 187.254C456.143 187.477 454.945 187.634 453.782 187.81C453.379 187.871 450.848 188.685 450.577 188.894C450.102 189.259 448.713 189.283 449.841 189.283C452.398 189.283 454.956 189.283 457.513 189.283C457.529 189.283 455.205 189.369 454.491 189.533C451.887 190.132 449.444 191.308 446.793 191.672C444.65 191.967 442.673 193.223 440.54 193.284C438.734 193.336 437.024 193.246 435.232 193.562C429.196 194.626 423.267 197.114 417.102 197.285C410.47 197.47 403.574 198.156 397.028 198.786C389.039 199.554 381.127 200.566 373.118 201.287C363.714 202.133 354.179 206.322 345.503 209.928C338.033 213.033 330.862 216.713 323.721 220.57C318.363 223.465 313.482 227.279 308.009 229.907C304.38 231.649 300.761 233.607 297.289 235.631C277.034 247.434 256.12 258.47 234.754 267.836C228.539 270.56 222.235 272.785 215.784 274.754C214.833 275.045 211.96 275.756 212.946 275.671C224.283 274.699 235.726 273.22 246.788 270.364C250.396 269.433 253.157 268.023 256.247 266.029C261.655 262.54 246.082 259.365 244.607 259.138C241.627 258.679 238.604 258.432 235.595 258.305C233.349 258.21 239.9 256.897 242.111 256.471C250.554 254.843 259.139 253.719 267.388 251.136C268.51 250.784 272.037 250.127 273.01 249.191C273.634 248.591 266.119 248.349 265.443 248.413C261.867 248.75 258.319 249.802 254.723 249.802C248.793 249.802 241.778 252.747 236.436 254.943C230.45 257.402 224.637 260.409 219.199 264.029C215.648 266.393 212.327 269.278 208.584 271.309C204.688 273.423 200.67 274.576 196.445 275.644C193.205 276.462 189.408 278.351 186.014 277.005C184.552 276.425 182.521 275.765 181.206 274.838C180.281 274.186 183.408 274.502 184.517 274.421C189.13 274.085 193.821 274.285 198.442 274.31C205.027 274.345 211.573 275.256 218.148 275.31C219.498 275.321 228.278 275.553 222.405 275.06C215.355 274.468 208.289 275.362 201.332 276.533C200.101 276.74 196.72 275.878 197.601 276.811C198.854 278.136 205.453 277.303 206.955 277.311C210.117 277.327 213.279 277.311 216.441 277.311C219.973 277.311 214.372 279.836 213.892 280.089C205.222 284.674 196.017 288.369 186.724 291.26C182.411 292.601 179.428 295.078 175.583 297.678C167.096 303.419 158.646 309.651 149.019 313.044C146.324 313.994 142.945 315.289 140.795 317.212C138.391 319.364 135.282 321.196 132.65 323.103C130.361 324.762 128.254 327.2 125.818 328.549C121.72 330.82 117.608 336.641 115.124 340.581C114.378 341.764 112.425 344.744 111.367 345.444C111.237 345.53 109.697 347.769 110.053 346.722C110.8 344.529 112.953 342.923 113.942 340.831C115.591 337.344 117.052 333.492 119.985 331.106C122.564 329.008 124.096 325.378 126.029 322.714C126.932 321.469 128.973 318.772 126.501 320.714C125.255 321.693 124.075 322.446 122.981 323.603C122.411 324.206 121.412 325.293 121.273 326.104C121.049 327.407 119.553 327.52 119.407 328.827C119.366 329.198 118.678 330.084 118.934 329.828C120.691 328.073 122.12 325.146 123.191 322.881C125.022 319.008 127.958 315.501 130.285 311.933C133.331 307.262 136.649 302.97 140.007 298.568C144.618 292.521 149.847 285.988 155.824 281.423C156.43 280.961 157.742 279.524 157.611 279.923C156.421 283.559 153.241 286.454 151.305 289.648C149.829 292.083 148.256 295.311 146.181 297.262C145.972 297.458 145.892 298.095 145.892 298.095C145.892 298.095 146.4 295.933 146.838 294.928C147.452 293.518 153.62 284.967 152.251 283.313C150.123 280.741 147.896 284.357 146.47 285.925C145.121 287.408 143.239 290.307 142.345 292.093C140.512 295.756 137.114 298.089 135.12 301.541C134.217 303.104 133.439 304.705 132.361 306.098C131.735 306.907 130.782 308.44 130.049 309.043C129.208 309.735 128.73 310.898 127.92 311.433C127.294 311.847 127.541 312.129 128.262 311.433C129.582 310.158 130.474 308.769 131.441 307.209C132.417 305.635 134.029 304.893 135.225 303.541C136.531 302.065 137.783 300.626 139.245 299.318C142.773 296.161 145.848 292.025 148.073 287.842C149.642 284.893 151.283 281.79 153.144 279.034C154.116 277.595 154.728 276.017 155.929 274.699C156.374 274.211 158.522 271.383 157.191 273.143C155.25 275.708 153.043 278.03 150.885 280.312C150.626 280.585 148.971 282.161 150.096 281.09C156.379 275.11 165.014 270.723 172.246 266.224C183.478 259.237 194.818 251.941 206.482 245.801C218.419 239.517 230.877 234.212 243.425 229.462C247.515 227.914 251.593 226.007 255.879 225.183C258.109 224.754 260.115 223.398 262.133 222.377C266.782 220.023 271.457 217.613 276.216 215.513C282.039 212.944 288.213 212.147 294.346 211.012C296.727 210.571 299.367 209.755 301.676 209.011C302.597 208.715 306.38 207.288 303.279 207.288C296.137 207.288 289.437 208.832 282.417 209.678C279.851 209.987 277.079 209.312 274.561 209.845C273.118 210.15 271.24 210.998 269.805 211.54C268.735 211.944 269.498 211.792 270.225 211.679C273.116 211.229 275.898 210.106 278.738 209.4C281.284 208.768 288.413 207.276 280.84 208.956C274.429 210.377 268.1 212.18 261.66 213.457C260.638 213.66 257.76 214.668 258.796 214.763C264.448 215.283 270.532 212.639 276.032 211.623C277.531 211.346 279.283 211.507 280.683 210.79C282.038 210.094 277.653 210.494 276.163 210.734C271.197 211.535 266.219 212.471 261.292 213.513C260.284 213.726 257.274 214.182 258.297 214.291C267.626 215.277 277.675 212.328 286.673 210.289C295.149 208.369 303.449 206.22 311.792 203.898C314.887 203.037 317.829 203.026 320.883 202.009C322.719 201.398 325.085 201.787 327.006 201.787C329.629 201.787 332.383 200.918 334.967 200.397C335.285 200.333 338.084 200.286 336.675 200.286C333.585 200.286 330.677 201.245 327.61 201.287C324.741 201.325 321.859 201.178 318.992 201.287C315.87 201.404 313.257 203.287 310.032 203.287C304.6 203.287 299.445 205.054 294.03 205.288C288.076 205.545 282.318 208.289 276.242 208.289C274.483 208.289 279.744 207.888 281.471 207.539C285.582 206.706 289.732 206.375 293.82 205.51C297.156 204.805 300.461 204.995 303.752 203.787C306.194 202.892 308.787 203.737 311.162 202.565C311.816 202.242 318.623 201.703 317.1 200.897C314.58 199.565 308.819 201.032 306.248 201.259C301.024 201.719 295.962 203.372 290.72 204.176C279.687 205.87 269.003 210.014 257.824 210.289C256.804 210.314 254.443 211.243 256.773 211.29C260.23 211.359 263.693 211.29 267.151 211.29C271.009 211.29 263.624 210.892 263.289 210.289C262.204 208.34 272.994 205.288 274.718 205.288C275.246 205.288 277.746 205.288 275.874 205.288C272.395 205.288 269.155 206.115 265.916 207.4C258.787 210.227 251.783 213.063 244.502 215.263C239.51 216.772 234.98 218.169 230.104 220.293C226.621 221.809 223.774 223.913 220.618 226.017C215.389 229.503 209.679 232.116 204.38 235.575C201.177 237.667 198.184 240.136 194.974 242.188C194.105 242.744 190.012 245.128 193.634 243.272C202.297 238.835 210.42 231.995 219.515 228.629C223.694 227.082 211.657 232.949 207.796 235.242C205.117 236.833 202.153 238.461 199.756 240.549C198.778 241.401 199.683 241.179 200.229 240.966C203.941 239.514 207.466 237.385 211.054 235.631C214.208 234.089 217.58 232.974 220.618 231.185C222.762 229.923 228.164 227.295 222.563 227.295C220.303 227.295 218.043 227.295 215.784 227.295C214.54 227.295 213.995 227.269 215.626 226.489C221.178 223.833 227.561 221.744 232.705 218.292C234.829 216.866 234.251 216.812 231.864 217.403C229.126 218.08 226.628 220.409 223.876 221.265C211.333 225.167 199.562 233.185 189.614 242.022C182.605 248.248 174.688 254.438 169.277 262.362C168.866 262.963 167.883 263.758 167.727 264.501C167.277 266.64 171.777 263.375 173.586 262.306C179.69 258.698 185.394 254.155 191.112 249.913C193.626 248.048 196.593 244.739 199.572 243.578C200.216 243.327 201.106 243.096 199.651 243.3C193.999 244.092 188.352 248.123 183.492 250.997C179.597 253.3 176.218 256.187 172.483 258.694C172.224 258.867 171.376 259.243 171.642 259.083C173.874 257.734 176.167 256.558 178.368 255.137C181.532 253.094 186.168 250.668 188.694 247.662C189.806 246.339 185.446 248.649 183.991 249.524C181.549 250.994 179.418 252.944 177.002 254.442C176.498 254.755 174.868 255.304 175.452 255.304C176.462 255.304 173.985 256.776 173.218 257.471C170.212 260.197 167.22 262.847 164.364 265.752C161.249 268.918 158.586 273.004 155.351 275.922C153.712 277.4 153.666 277.169 155.246 275.421C158.562 271.755 161.194 267.347 164.837 264.057C168.306 260.923 171.792 257.718 175.425 254.804C175.713 254.573 179.311 251.282 179.262 250.913C179.227 250.656 172.715 255.036 172.01 256.304C171.391 257.416 172.643 255.531 173.428 254.859C177.739 251.174 181.882 248.645 186.908 246.023C201.648 238.332 216.876 233.985 232.915 230.574C239.227 229.231 245.58 227.925 251.833 226.295C257.912 224.709 263.133 221.544 268.807 218.737C272.282 217.017 275.763 215.874 279.474 214.902C279.896 214.792 281.935 214.449 282.233 213.818C282.315 213.644 281.865 213.791 281.681 213.791C280.595 213.791 279.509 213.791 278.423 213.791C275.354 213.791 272.235 213.622 269.174 213.902C261.871 214.57 254.662 217.292 247.34 217.292C245.902 217.292 246.658 217.09 247.629 216.291C249.459 214.786 251.676 213.66 253.62 212.29C254.85 211.422 256.193 211.096 257.508 210.401C257.956 210.164 255.625 210.289 255.17 210.289C252.257 210.289 250.145 212.488 247.366 213.179C247.149 213.233 243.7 213.254 244.371 214.291C245.776 216.462 254.222 217.456 255.906 217.903C269.236 221.443 282.343 223.56 296.027 224.794C307.241 225.805 318.774 228.795 330.027 228.795C339.048 228.795 348.488 224.896 357.195 222.682C368.189 219.888 381.493 217.108 390.144 208.844C391.552 207.499 393.83 203.779 391.09 202.537C389.379 201.762 387.608 201.348 386.045 200.286C382.771 198.06 376.755 199.286 373.013 199.286C367.373 199.286 361.732 199.286 356.092 199.286C352.693 199.286 349.783 200.286 346.423 200.286C344.216 200.286 342.008 200.286 339.801 200.286C339.118 200.286 337.069 200.286 337.752 200.286C341.168 200.286 344.583 200.286 347.999 200.286C354.432 200.286 360.718 199.802 367.127 199.397C377.293 198.754 387.318 196.625 397.501 196.313C400.99 196.206 406.155 197.251 409.535 195.785C411.674 194.857 414.132 195.289 416.314 194.673C417.725 194.275 419.235 193.529 420.676 193.312C424.027 192.805 427.326 193.046 430.713 192.395C432.073 192.133 433.654 192.62 434.969 192.172C436.466 191.664 437.291 191.283 438.884 191.283C441.462 191.283 443.678 190.545 446.005 189.894C448.331 189.243 451.144 189.917 453.362 189.005C455.438 188.151 457.507 187.303 459.668 186.754C460.69 186.495 461.39 185.641 462.4 185.393C463.432 185.139 464.219 185.361 465.133 184.67C466.542 183.605 468.022 183.111 469.494 182.169C470.916 181.261 474.307 179.681 475.065 178.279C476.189 176.198 482.797 174 480.53 174C477.806 174 474.267 176.66 471.518 177.307C469.289 177.83 466.738 179.792 464.66 180.891C463.001 181.768 460.397 182.309 459.93 184.281" stroke="white" stroke-width="9" stroke-linecap="round"/>
<path d="M362.922 288.948C364.783 288.457 366.586 286.879 368.365 286.073C370.63 285.047 372.959 283.94 375.325 283.198C378.826 282.099 382.405 281.203 385.947 280.267C388.811 279.511 389.982 278.522 385.895 279.299C381.436 280.148 377.341 282.119 373.022 283.364C370.747 284.019 376.171 284.47 376.685 284.47C379.686 284.47 388.556 283.423 385.581 283.004C383.253 282.676 378.674 284.47 378.674 284.47C378.674 284.47 385.397 282.825 388.695 281.76C389.232 281.587 393.345 280.621 393.247 280.765C392.322 282.134 391.557 282.546 390.134 283.087C389.73 283.241 387.781 283.86 387.517 284.082C386.94 284.57 384.96 284.47 386.706 284.47C390.05 284.47 392.881 281.671 395.89 281.484C396.611 281.439 393.591 281.244 392.41 281.732C389.742 282.836 386.861 283.059 384.116 283.972C381.025 285 377.733 285.19 374.592 286.073C372.324 286.71 370.255 286.834 367.946 287.068C364.107 287.458 360.536 288.794 356.643 288.921C350.726 289.113 344.824 289.446 338.903 289.446C336.252 289.446 333.6 289.446 330.949 289.446C330.235 289.446 327.801 289.017 327.234 289.557C326.106 290.629 330.02 290.956 331.525 291.16C338.364 292.088 345.249 292.511 352.142 292.432C352.238 292.431 354.39 292.396 352.535 292.183C350.204 291.915 347.837 291.947 345.497 291.934C342.765 291.919 340.231 291.78 337.543 291.464C332.532 290.876 339.214 290.968 340.996 290.939C349.439 290.804 356.761 285.364 365.016 284.47C370.26 283.901 375.284 281.062 380.557 280.101C383.463 279.572 386.343 278.928 389.244 278.387C390.202 278.208 391.148 278 392.122 278C393.113 278 390.145 278.238 389.192 278.525C386.061 279.47 382.61 279.51 379.589 280.737C378.76 281.074 377.94 280.837 377.104 281.014C376.435 281.155 379.328 281.484 379.668 281.484C382.825 281.484 385.888 280.986 389.035 280.986C392.245 280.986 389.895 280.769 388.145 281.594C386.379 282.427 384.446 282.73 382.703 283.585C381.639 284.107 380.62 284.906 379.406 284.967C375.875 285.145 381.862 285.479 382.729 285.437C385.193 285.319 388.263 284.967 390.343 283.502C393.384 281.36 383.326 285.673 379.773 286.571C377.719 287.089 375.957 287.513 374.016 288.451C373.129 288.879 372.305 288.806 371.4 289.059C370.496 289.312 369.995 290.224 369.097 290.414C367.179 290.819 372.849 289.091 374.801 288.948C375.394 288.905 376.362 288.451 375.168 288.451C373.453 288.451 371.447 288.851 369.778 289.225C367.907 289.644 366.035 290.939 364.152 290.939C363.223 290.939 366.033 290.909 366.926 290.635C367.923 290.329 369.5 289.053 370.615 289.446C371.177 289.644 369.444 289.635 368.862 289.75C367.108 290.098 365.373 290.543 363.655 291.05C360.341 292.028 357.236 293.661 353.922 294.589C352.715 294.926 349.01 295.418 350.259 295.418C353.516 295.418 357.19 294.048 360.28 293.151C363.911 292.097 367.478 290.711 370.981 289.253C371.14 289.187 373.273 288.074 372.656 287.981C368.491 287.352 363.306 288.77 359.626 290.828C358.315 291.562 362.603 290.924 364.074 290.718C368.799 290.054 373.207 288.482 377.549 286.488C379.933 285.392 387.704 284.287 385.11 284.47C383.053 284.614 381.407 285.663 379.563 286.46C378.174 287.061 376.703 287.001 375.377 287.511C374.155 287.98 373.729 290.014 375.429 289.197C377.31 288.294 379.408 287.789 381.29 286.847C382.559 286.212 383.756 285.628 385.058 285.078C385.672 284.818 386.314 284.889 386.942 284.58C388.011 284.053 384.634 285.126 383.514 285.52C372.598 289.365 361.333 290.863 349.971 291.907C346.4 292.235 348.618 293.018 351.148 292.902C353.205 292.808 355.153 292.142 357.192 291.962C358.663 291.833 358.874 291.467 357.166 291.437C348.722 291.288 341.166 294.494 332.728 295.169C324.096 295.86 315.27 295.418 306.616 295.418C304.858 295.418 303.088 295.354 301.33 295.418C300.584 295.445 300.542 296.424 301.252 296.634C304.488 297.592 308.598 296.911 311.927 296.911C316.791 296.911 321.669 297.104 326.501 296.413C329.283 296.015 332.218 295.505 334.926 294.699C335.563 294.51 336.48 294.141 336.836 293.483C337.423 292.398 334.483 293.06 333.304 293.151C324.095 293.859 315.279 295.964 306.302 298.072C303.005 298.846 299.611 298.895 296.333 299.648C292.072 300.627 297.76 299.897 299.499 299.897C305.303 299.897 311.089 299.726 316.872 299.178C319.083 298.968 321.8 299.393 323.937 298.791C332.078 296.497 307.088 298.404 298.662 298.404C293.601 298.404 308.777 299.002 313.837 298.902C319.02 298.798 324.171 297.068 329.196 295.888C332.194 295.184 323.025 296.035 320.012 296.662C316.757 297.339 313.486 297.998 310.279 298.902C307.319 299.735 311.035 299.897 312.058 299.897C317.759 299.897 324.027 300.321 329.588 298.791C333.322 297.763 337.052 296.435 340.735 295.197C341.968 294.782 343.269 295.058 344.502 294.644C345.221 294.402 345.768 293.578 346.465 293.455C347.756 293.228 348.865 292.93 350.206 292.93C350.819 292.93 353.632 292.603 352.98 293.206C352.609 293.549 349.723 294.866 349.264 294.92C347.8 295.092 347.965 296.338 346.543 296.8C345.054 297.285 343.994 297.27 342.488 298.127C340.523 299.245 342.813 297.545 343.587 297.187C344.456 296.785 345.314 297.077 346.203 296.856C347.437 296.549 348.326 295.596 349.631 295.307C351.727 294.844 353.281 294.244 355.282 293.427C356.642 292.872 359.499 291.437 360.855 291.437C363.803 291.437 372.647 291.437 369.699 291.437C365.064 291.437 359.982 293.873 355.387 294.81C349.316 296.048 342.531 296.815 336.784 299.15C334.392 300.122 331.428 300.299 328.908 300.394C326.358 300.491 323.445 300.719 321.033 301.611C319.459 302.193 317.602 302.82 315.93 302.883C302.197 303.401 288.358 302.883 274.616 302.883C272.261 302.883 269.907 302.883 267.552 302.883C266.837 302.883 264.691 302.883 265.406 302.883C268.658 302.883 271.914 302.931 275.166 302.883C282.581 302.772 290.287 300.811 297.563 299.399C300.064 298.914 307.72 298.902 305.177 298.902C302.302 298.902 299.268 298.404 296.307 298.404C295.41 298.404 288.818 298.419 289.661 299.012C294.358 302.321 311.843 302.883 306.197 302.883C302.233 302.883 298.372 303.38 294.397 303.38C291.68 303.38 286.744 302.338 284.376 303.878C283.768 304.273 281.809 304.873 283.329 304.873C285.387 304.873 287.446 304.873 289.504 304.873C294.011 304.873 298.469 303.878 302.874 303.878C305.552 303.878 302.521 302.5 301.409 302.413C296.808 302.053 292.08 302.385 287.463 302.385C282.225 302.385 277.052 302.929 271.843 303.408C270.857 303.499 270.159 304.244 269.174 304.348C268.98 304.369 266.797 304.289 266.924 304.625C267.208 305.374 272.154 304.873 272.863 304.873C276.038 304.873 279.212 304.873 282.387 304.873C287.339 304.873 280.064 304.873 278.567 304.873C270.421 304.873 262.275 304.873 254.129 304.873C245.962 304.873 238.191 304.409 230.084 303.159C226.909 302.67 217.325 301.887 220.534 301.887C224.669 301.887 228.802 302.17 232.936 302.275C234.472 302.313 243.589 303.463 244.841 301.611C245.019 301.347 233.629 299.328 232.622 299.233C228.636 298.86 224.635 298.902 220.638 298.902C211.196 298.902 239.457 300.585 248.844 301.666C256.8 302.582 243.702 300.743 243.559 300.726C230.43 299.169 217.318 297.906 204.102 297.906C200.469 297.906 197.821 299.488 194.604 301.113C188.132 304.384 181.192 304.409 174.431 306.366C167.599 308.344 148.449 318.086 155.279 316.098C166.29 312.894 177.629 310.102 188.403 306.09C189.779 305.578 195.094 304.675 191.046 304.127C181.846 302.881 172.114 304.783 163.076 306.311C162.591 306.393 161.21 306.724 161.689 306.836C162.532 307.034 164.331 306.911 165.012 306.864C178.138 305.961 191.184 302.418 203.945 299.289C213.891 296.849 224.4 294.895 234.139 291.547C234.502 291.423 236.863 291.134 237.07 290.828C237.344 290.423 236.109 290.743 235.657 290.884C232.246 291.944 228.924 293.508 225.557 294.699C213.132 299.094 200.14 303.783 187.069 305.509C183.804 305.94 173.937 306.272 177.205 305.869C191.008 304.167 204.77 301.979 218.44 299.344C223.214 298.424 227.723 297.743 232.517 297.381C233.813 297.283 235.058 296.911 236.363 296.911C239.87 296.911 229.353 297.278 225.871 297.713C219.015 298.568 211.914 298.901 205.149 300.394C204.106 300.625 203.141 301.021 202.114 301.279C201.637 301.399 200.184 301.226 200.648 301.39C204.849 302.869 210.147 302.286 214.411 302.053C221.89 301.645 229.507 301.37 236.913 300.118C237.165 300.075 240.061 299.606 239.686 299.51C238.382 299.176 236.545 299.408 235.29 299.482C229.777 299.806 224.274 300.6 218.807 301.39C218.362 301.454 203.263 303.016 203.134 304.376C203.056 305.194 225.993 304.796 228.854 304.376C229.394 304.296 232.394 304.287 232.831 303.767C233.387 303.106 224.182 303.151 224.04 303.159C219.4 303.421 214.799 304.011 210.172 304.348C209.761 304.378 207.387 304.064 207.137 304.486C206.876 304.928 208.084 304.826 208.576 304.846C211.005 304.943 213.447 304.873 215.876 304.873C221.908 304.873 228.085 305.236 234.035 303.989C236.728 303.424 239.108 302.883 241.832 302.883C251.659 302.883 261.918 303.825 271.555 301.279C275.119 300.338 264.213 300.892 260.54 300.892C259.527 300.892 258.031 301.612 257.897 302.883C257.742 304.36 259.79 303.878 260.723 303.878C262.188 303.878 263.653 303.878 265.118 303.878C265.164 303.878 264.961 304.323 264.961 304.625C264.961 305 265.129 305.968 264.857 306.256C264.279 306.867 259.604 305.651 258.368 306.118C252.874 308.191 245.307 306.864 239.529 306.864C236.782 306.864 234.035 306.864 231.287 306.864C228.247 306.864 225.716 308.855 222.574 308.855C214.673 308.855 190.967 308.855 198.869 308.855C203.291 308.855 207.713 308.855 212.135 308.855C212.475 308.855 213.594 309.045 213.783 308.578C214.295 307.317 207.385 307.364 207.085 307.362C203.841 307.338 200.596 307.362 197.352 307.362C196.353 307.362 194.538 306.998 193.584 307.472C193.014 307.756 197.007 307.86 197.09 307.859C199.943 307.837 203.487 308.085 206.248 307.113C206.575 306.997 207.452 306.553 206.614 306.366C203.807 305.742 200.909 306.515 198.163 307.085C195.644 307.608 188.607 308.802 195.572 308.855C197.805 308.871 204.503 308.855 202.27 308.855C200.662 308.855 199.195 309.166 197.639 309.601C194.257 310.547 191.198 310.845 187.723 310.845C187.071 310.845 187.041 310.942 186.572 311.343C185.018 312.672 181.991 312.796 180.135 313.223C174.807 314.449 168.825 315.453 163.756 317.536C154.115 321.498 183.165 309.962 192.799 305.979C196.085 304.621 185.81 307.26 182.49 308.523C179.951 309.489 177.175 309.747 174.588 310.569C169.238 312.269 164.15 314.811 158.811 316.596C153.838 318.259 148.975 320.917 144.132 323.01C142.044 323.913 140.427 324.45 138.219 324.89C137.438 325.046 137.034 325.775 136.231 325.775C134.88 325.775 138.626 324.455 139.789 323.729C142.065 322.308 144.428 321.124 146.749 319.803C149.617 318.171 152.404 316.394 155.226 314.716C158.76 312.616 147.288 316.781 143.661 318.697C142.427 319.349 141.436 319.944 143.661 319.803C150.112 319.394 156.398 316.218 162.395 313.914C164.345 313.165 170.259 311.81 168.57 313.085C167.039 314.24 165.32 314.722 163.704 315.711C161.367 317.141 157.951 317.735 155.802 319.692C154.402 320.968 152.435 321.582 151.092 322.9C149.733 324.233 147.255 325.955 145.336 326.245C143.776 326.48 148.441 323.49 149.391 323.01C152.804 321.286 156.199 319.374 159.674 317.812C162.192 316.681 165.623 314.005 168.413 313.831C170.2 313.72 164.892 314.55 163.18 315.103C154.697 317.842 146.49 321.925 138.141 325.056C136.135 325.808 135.066 327.944 133.326 328.761C131.412 329.66 129.399 331.064 127.544 332.134C126.908 332.5 122.311 335.266 123.619 334.29C127.647 331.286 130.627 326.302 134.975 324.005C136.132 323.394 140.418 319.915 136.858 322.236C133.173 324.639 129.741 327.472 126.209 330.116C125.439 330.692 123.333 331.904 122.834 332.853C122.692 333.122 126.693 331.428 127.073 331.139C129.412 329.352 131.858 327.902 134.399 326.466C138.738 324.014 143.296 322.058 147.691 319.803C149.064 319.098 150.747 317.699 149.313 319.692C148.533 320.777 146.678 321.751 145.545 322.512C142.731 324.405 139.862 325.869 137.329 328.263C136.281 329.254 134.025 330.06 136.963 328.761C139.097 327.817 141.146 326.812 143.217 325.803C144.613 325.122 147.251 324.78 144.394 324.78C141.234 324.78 138.34 326.614 135.655 328.236C134.31 329.048 132.834 329.85 131.416 330.503C129.045 331.595 127.791 333.443 125.843 335.12C125.613 335.318 123.265 336.531 124.483 335.922C126.193 335.065 127.71 333.77 129.428 332.963C131.043 332.205 132.294 331.151 134.033 330.641C135.031 330.348 135.939 329.855 136.858 329.369C137.326 329.122 134.72 330.131 134.242 330.254C130.344 331.252 126.399 333.98 123.017 336.226C119.536 338.538 117.186 342.16 113.886 344.686C112.942 345.408 110.354 348.41 112.97 346.041C117.2 342.209 122.249 339.274 126.288 335.23C128.679 332.837 121.543 340.059 119.171 342.474C118.458 343.2 117.623 343.791 116.973 344.575C115.981 345.774 119.472 342.774 120.584 341.7C120.945 341.351 123.868 336.794 123.828 336.806C122.318 337.262 120.59 339.889 119.433 340.926C117.622 342.548 115.947 344.358 114.147 345.958C111.684 348.147 108.079 351.275 106.769 354.39C105.871 356.525 107.878 352.201 108.13 351.764C108.966 350.308 109.227 348.732 110.223 347.229C110.478 346.844 108.952 350.887 108.653 351.598C107.952 353.263 106.928 355.841 105.775 357.127C105.032 357.955 104.672 359.984 103.891 360.5C102.691 361.292 102.648 363.232 104.1 360.86C106.354 357.179 108.394 353.096 111.793 350.436C114.526 348.297 118.661 343.987 119.904 340.705" stroke="white" stroke-width="7" stroke-linecap="round"/>
<path d="M276.549 231.699C282.554 231.067 288.192 227.555 294.156 226.471C297.68 225.83 286.978 227.151 283.553 228.197C282.349 228.565 274.377 230.939 279.176 229.073C281.24 228.27 287.616 226.42 285.45 226.884C282.658 227.482 280.65 229.354 278.13 230.362C276.069 231.186 282.411 229.124 284.429 228.197C287.304 226.876 282.382 228.034 281.608 228.197C276.969 229.174 282.744 228.789 284.745 228.927C308.122 230.534 331.173 234.886 353.35 242.449C359.744 244.629 366.181 246.606 372.344 249.38C374.021 250.134 374.761 252.606 375.481 254.122C377.707 258.811 379.503 263.697 381.415 268.519C382.559 271.405 383.431 274.498 385.33 276.982C385.678 277.437 386.745 277.903 386.765 278.539C386.83 280.552 379.399 277.23 378.789 276.885C377.637 276.235 376.243 275.313 375.287 274.356C374.861 273.93 374.832 273.204 374.387 272.848C373.413 272.069 379.442 270.799 379.761 270.757C380.569 270.649 383.837 269.41 381.269 268.908C377.896 268.249 374.356 268.471 370.933 268.471C370.325 268.471 372.15 268.487 372.757 268.471C376.547 268.366 380.126 267.382 383.847 266.817C384.473 266.722 385.943 266.76 386.328 266.087C386.468 265.841 379.047 266.534 378.643 266.622C374.737 267.471 370.878 268.751 367.164 270.222C365.085 271.044 364.395 271.639 367.066 270.659C367.793 270.393 373.225 268.59 370.106 268.957C368.409 269.157 366.924 269.806 365.413 270.562C362.365 272.086 365.695 271.058 367.115 270.562C370.603 269.343 380.492 264.334 377.013 265.576C373.034 266.998 369.22 269.921 365.51 271.924C362.539 273.528 359.565 275.113 356.633 276.788C352.881 278.932 348.724 279.986 345.033 282.284C343.884 282.999 342.212 283.211 342.212 284.911C342.212 286.403 343.718 287.233 344.936 287.732C346.129 288.22 351.769 288.553 351.842 290.455C351.883 291.508 351.625 292.11 350.699 292.717C350.084 293.12 347.872 293.422 348.608 293.422C349.686 293.422 350.764 293.422 351.842 293.422" stroke="white" stroke-width="5" stroke-linecap="round"/>
<path d="M236.434 213.168C237.787 213.033 239.084 212.449 240.443 212.397C240.671 212.388 241.582 212.204 241.45 212.204C240.887 212.204 240.32 212.184 239.757 212.204C238.539 212.247 237.639 213.168 236.434 213.168C233.139 213.168 243.021 212.975 246.316 212.975C249.778 212.975 253.239 213.361 256.692 213.361" stroke="white" stroke-width="5" stroke-linecap="round"/>
<path d="M275.985 202.171C277.362 202.171 278.685 202.049 280.036 201.978C281.066 201.924 281.92 201.4 282.93 201.4" stroke="white" stroke-width="5" stroke-linecap="round"/>
<path d="M108.152 341.546C108.797 340.901 109.58 340.004 109.949 339.192C110.204 338.631 110.585 338.311 110.843 337.846C111.162 337.272 111.747 336.769 111.925 336.144C112.04 335.744 112.539 334.551 112.882 334.315C113.585 333.832 113.206 331.47 114.395 331.33C114.612 331.304 115.228 330.38 115.446 330.1C115.799 329.646 115.819 328.601 116.193 328.303C116.682 327.912 116.599 327.148 117.233 326.831C117.882 326.507 118.595 324.558 119.01 323.867C119.396 323.222 119.691 322.735 120.029 322.059C120.174 321.77 120.494 321.558 120.597 321.261C120.719 320.907 120.604 320.529 120.733 320.167C120.869 319.787 121.319 319.481 121.385 319.116C121.462 318.695 121.301 318.356 121.585 318.002C122.115 317.339 122.295 316.302 122.709 315.543C123.173 314.692 124.423 313.497 124.423 312.6" stroke="white" stroke-width="5" stroke-linecap="round"/>
<path d="M125.558 309.384C126.153 308.656 126.368 307.718 126.808 306.935C127.204 306.231 127.859 305.678 128.164 304.885C128.335 304.441 128.865 304.005 128.953 303.613C129.104 302.93 130.062 302.653 130.361 302.089C130.83 301.203 131.093 300.336 131.717 299.503C132.128 298.955 132.637 298.262 132.947 297.643C133.225 297.087 133.855 296.39 134.26 295.888C134.497 295.595 134.871 295.431 135.133 295.11C135.357 294.836 135.615 294.506 135.858 294.248C136.359 293.716 136.927 292.987 137.288 292.356C137.558 291.884 138.053 290.79 138.465 290.464C138.787 290.209 138.675 290.109 138.843 289.792C138.952 289.586 139.318 289.523 139.484 289.203C140.26 287.712 141.263 286.253 142.28 284.915C143.439 283.39 144.694 281.891 145.612 280.248C145.999 279.555 146.748 279.151 147.136 278.44C147.531 277.717 148.115 276.825 148.734 276.275C149.261 275.806 149.965 274.983 150.3 274.383C150.964 273.192 152 272.195 152.801 271.083C153.806 269.687 154.99 268.221 156.207 267.004C159.271 263.94 162.366 260.845 165.383 257.829C166.305 256.907 167.097 255.844 168.126 255.043C168.931 254.417 169.893 253.671 170.575 252.92C171.575 251.82 172.795 250.286 173.949 249.41C174.932 248.663 176.525 247.841 177.291 246.855C177.489 246.601 177.542 246.619 177.859 246.561C178.157 246.507 178.11 246.175 178.342 246.046C178.677 245.86 179.33 245.437 179.667 245.437" stroke="white" stroke-width="5" stroke-linecap="round"/>
<path d="M180.423 243.923C181.947 242.538 183.419 240.781 185.153 239.666C185.69 239.321 186.264 238.928 186.761 238.542C187.086 238.289 187.865 238.12 187.991 237.869" stroke="white" stroke-width="5" stroke-linecap="round"/>
<path d="M98.314 365.195C98.6874 365.154 98.8477 364.241 99.0707 363.913C99.4172 363.403 99.2581 363.115 99.8275 362.736" stroke="white" stroke-width="5" stroke-linecap="round"/>
<path d="M155.828 322.816C156.35 322.816 156.801 322.402 157.247 322.154C157.717 321.893 158.287 321.966 158.75 321.586C159.05 321.341 159.562 321.073 159.896 320.924C160.252 320.766 160.648 320.475 161.031 320.262C162.655 319.36 164.593 319.399 166.192 318.507C166.787 318.175 167.829 318.108 168.504 317.939C168.839 317.855 169.212 317.897 169.555 317.897C169.984 317.897 170.231 317.548 170.627 317.519C172.321 317.393 173.851 316.762 175.609 316.762C176.598 316.762 177.664 316.099 178.71 315.995C179.686 315.897 180.866 315.411 181.842 315.154C183.781 314.644 185.506 314.492 187.518 314.492C190.663 314.492 193.695 313.407 196.82 313.157C198.21 313.046 199.617 312.847 201.003 312.789C202.05 312.745 203.318 312.793 204.346 312.558C206.906 311.972 209.646 312.197 212.208 311.612C213.237 311.377 214.294 311.465 215.35 311.465C217.344 311.465 219.297 311.427 221.278 311.286C224.278 311.072 227.141 310.329 230.191 310.329C231.158 310.329 232.038 309.951 233.019 309.951C234.436 309.951 235.83 309.922 237.244 309.804C238.415 309.706 240.239 310.14 241.343 309.72C241.882 309.515 242.46 309.194 243.046 309.194C245.582 309.194 248.147 309.333 250.656 308.963C251.576 308.827 252.536 308.486 253.452 308.438C254.107 308.403 254.656 308.438 253.641 308.438C252.698 308.438 251.756 308.438 250.813 308.438C249.423 308.438 248.196 309.107 246.83 309.205C245.931 309.269 245.076 309.641 244.192 309.751C243.621 309.823 242.571 309.762 243.824 309.762C244.541 309.762 245.191 309.601 245.894 309.489C247.007 309.312 248.13 309.447 249.247 309.341C251.962 309.086 254.689 309.146 257.362 308.522C260.265 307.843 263.328 307.864 266.254 307.344C267.157 307.184 269.925 307.302 269.007 307.302C267.617 307.302 266.275 307.379 264.898 307.481C263.689 307.571 262.469 307.549 261.314 307.965C260.563 308.235 259.848 308.627 259.033 308.627C258.525 308.627 258.334 309.052 258.854 309.289C259.567 309.613 260.487 309.256 261.208 309.205C262.127 309.139 262.903 308.438 263.773 308.438C264.578 308.438 265.354 308.248 266.138 308.248C268.846 308.248 271.554 308.248 274.263 308.248C274.949 308.248 275.587 308.438 274.452 308.438C273.418 308.438 272.385 308.438 271.351 308.438C269.808 308.438 268.316 309.384 266.706 309.384C266.536 309.384 265.309 309.432 265.896 309.236C266.297 309.103 266.843 309.194 267.263 309.194C268.398 309.194 269.533 309.194 270.668 309.194C271.93 309.194 273.689 309.534 274.83 308.963C275.895 308.431 276.659 308.438 277.857 308.438" stroke="white" stroke-width="5" stroke-linecap="round"/>
<path d="M280.128 307.492C280.258 308.534 280.514 308.627 281.599 308.627C283.437 308.627 285.264 308.468 287.086 308.438C287.856 308.425 288.628 308.438 289.398 308.438C290.407 308.438 291.286 307.862 292.278 307.723C294.189 307.454 296.183 307.316 298.101 307.103C300.434 306.843 302.973 306.735 305.311 306.735C307.056 306.735 308.787 306.708 310.483 306.262C311.132 306.091 311.841 306.319 312.438 305.978C313.043 305.632 314.157 305.43 314.855 305.41C316.872 305.353 318.909 305.56 320.909 305.263C322.412 305.041 323.782 304.757 325.261 304.317C326.764 303.87 328.379 303.519 329.99 303.519C330.653 303.519 331.315 303.519 331.977 303.519C333.744 303.519 335.408 302.901 337.148 302.772C339.015 302.634 340.986 302.09 342.771 301.522C343.819 301.188 344.862 300.87 345.967 300.87C347.07 300.87 348.01 300.442 349.078 300.26C350.702 299.984 352.06 299.106 353.618 298.831C355.732 298.458 357.769 298.015 359.757 297.202C362.666 296.012 365.866 295.754 368.848 294.711C369.617 294.442 370.354 294.216 371.129 294.017C371.765 293.853 372.362 293.322 373.021 293.102C374.842 292.495 376.748 291.933 378.55 291.221C379.221 290.956 379.956 290.853 380.578 290.464C380.968 290.221 381.934 289.843 382.376 289.75C384.177 289.368 386.176 289.158 387.862 288.383C390.768 287.048 393.433 285.283 396.576 284.326C398.265 283.812 399.434 282.727 400.832 281.562C401.82 280.739 402.846 279.949 403.859 279.155C405.18 278.12 402.546 278.897 402.073 279.018C401.58 279.145 400.156 279.515 399.781 279.87C399.098 280.515 400.679 280.436 400.853 280.427C403.675 280.27 406.961 278.56 408.968 276.653C410.596 275.107 412.949 274.406 414.538 272.785C416.137 271.155 417.694 269.476 419.153 267.719C419.434 267.38 420.298 266.702 420.298 266.174C420.298 265.898 418.606 267.05 418.522 267.11C417.085 268.129 414.906 269.247 413.887 270.725C412.868 272.202 416.214 270.459 416.609 270.221C417.385 269.752 419.81 268.263 417.776 269.842C416.631 270.731 415.279 271.311 414.076 272.113" stroke="white" stroke-width="5" stroke-linecap="round"/>
<path d="M450.212 221.031C452.808 218.435 455.643 216.042 458.431 213.652C459.449 212.779 456.259 215.171 456.056 215.355C454.524 216.742 452.94 218.402 451.725 220.085C451.507 220.386 450.771 220.984 451.305 220.221C451.787 219.532 453.481 217.66 452.986 218.34C451.889 219.849 450.325 221.097 449.097 222.513C448.174 223.578 447.421 223.098 446.606 222.113C442.163 216.744 439.518 207.82 431.513 207.02C429.22 206.791 432.58 204.994 433.184 204.613C433.588 204.359 434.797 203.6 434.425 203.898C432.983 205.052 431.687 206.281 430.367 207.577C429.784 208.15 429.153 208.743 428.549 209.28C428.26 209.537 429.946 208.331 430.22 208.124C430.324 208.045 431.544 207.278 431.629 207.304C431.842 207.368 431.511 211.522 431.524 211.823C431.752 217.133 434.275 222.098 435.822 227.127C435.969 227.602 436.034 227.916 436.001 228.42C435.852 230.728 435.599 233.038 435.339 235.336C434.938 238.881 434.738 242.935 433.069 246.183C432.379 247.524 431.536 248.851 430.725 250.124C429.817 251.548 429.627 253.443 429.127 255.043C428.128 258.243 427.026 261.579 425.228 264.44C424.368 265.807 423.725 266.952 422.358 267.761C421.767 268.112 421.15 268.338 420.55 268.707C419.696 269.233 421.662 268.317 421.927 268.129C422.183 267.948 424.025 266.679 423.262 267.32C422.207 268.207 421.038 269.179 419.762 269.737C419.245 269.963 418.56 270.384 418.249 270.851C417.893 271.384 419.24 270.039 419.752 269.653C421.144 268.604 422.368 267.37 423.62 266.164C424.986 264.846 426.644 263.747 428.076 262.474C430.254 260.538 432.624 258.855 434.887 257.019C438.61 253.998 442.241 251.117 445.681 247.791C447.401 246.129 449.227 244.407 450.779 242.683C451.691 241.67 452.668 240.707 453.586 239.698C454.286 238.928 455.267 238.45 455.982 237.68C457.671 235.861 458.732 233.458 460.312 231.468C462.44 228.789 464.232 226.002 466.293 223.28C466.848 222.547 467.36 221.858 467.796 221.041C468.052 220.561 468.574 220.092 468.752 219.601C468.936 219.097 469.387 218.896 469.74 218.529C470.218 218.035 470.778 217.267 471.128 216.679C471.588 215.906 472.173 214.35 472.904 213.862C473.694 213.336 473.931 212.1 474.607 211.466C475.802 210.346 476.094 208.272 477.371 207.22C478.035 206.673 478.947 205.334 479.305 204.529C479.683 203.679 480.58 202.977 481.05 202.112C481.996 200.368 483.159 198.623 484.266 196.961C484.49 196.625 484.832 196.369 484.434 196.909C483.82 197.742 483.105 198.533 482.469 199.358C481.289 200.888 479.886 202.226 478.78 203.825C478.397 204.377 477.87 205.155 477.266 205.475C476.923 205.656 477.077 206.396 477.077 206.747C477.077 207.626 478.438 205.735 478.548 205.559C478.907 204.989 479.37 204.49 479.726 203.919C480.233 203.105 480.394 202.329 481.008 201.544C481.892 200.413 482.473 198.82 483.236 197.571C483.813 196.626 484.592 195.676 485.359 194.88C486.082 194.131 486.57 193.186 487.314 192.442C487.843 191.913 488.216 191.3 488.712 190.77C489.304 190.14 488.659 190.954 488.534 191.159C486.851 193.913 484.809 196.418 482.91 199.042C481.267 201.314 479.46 203.424 477.75 205.643C477.308 206.216 477.014 206.794 476.446 207.22C475.897 207.632 476.851 206.292 476.993 206C477.331 205.303 477.985 204.348 478.191 203.625C478.354 203.054 478.208 202.897 477.823 203.446C477.715 203.602 475.798 205.534 476.709 205.307C477.294 205.161 478.916 203.331 478.023 204.045C477.71 204.296 475.904 206.11 477.077 205.328" stroke="white" stroke-width="5" stroke-linecap="round"/>
<path d="M489.564 187.354C489.87 186.13 491.137 185.131 491.687 183.991C492.126 183.082 493.008 182.206 493.158 181.153C493.306 180.118 494.241 178.897 494.63 177.895C495.089 176.713 495.851 175.611 496.196 174.405C496.251 174.211 496.593 174.211 496.711 174.069C496.988 173.736 497.119 173 497.32 172.598C497.801 171.637 498.535 170.829 498.834 169.781C499.197 168.508 500.152 167.501 500.726 166.354" stroke="white" stroke-width="5" stroke-linecap="round"/>
<path d="M506.969 146.489C507.266 145.003 509.204 144.303 509.849 143.084C509.92 142.95 510.353 142.03 510.522 142.18C510.711 142.348 510.564 143.236 510.564 143.504C510.564 144.022 510.698 145.098 510.186 145.354" stroke="white" stroke-width="5" stroke-linecap="round"/>
<path d="M512.267 138.921C512.267 138.217 514.122 136.012 512.876 138.165C512.657 138.544 511.982 139.459 511.51 139.489C511.456 139.492 512.267 138.947 512.267 139.678C512.267 140.567 512.732 140.015 512.981 139.489C513.279 138.861 513.729 137.981 513.78 137.261C513.878 135.886 515.423 134.832 515.662 133.519C515.81 132.705 515.958 131.896 516.324 131.164C516.469 130.873 516.384 130.605 516.439 130.303C516.498 129.981 516.807 129.874 516.807 129.556C516.807 129.181 517.058 129.141 517.28 128.894C517.397 128.764 517.564 128.278 517.564 128.453C517.564 129.172 517.518 129.79 517.364 130.481C517.081 131.758 515.9 132.93 515.483 134.181C515.32 134.669 515.396 135.102 515.283 135.61C515.174 136.101 514.537 136.42 514.537 137.029" stroke="white" stroke-width="2" stroke-linecap="round"/>
<path d="M105.945 346.906C105.914 347.478 105.637 348.079 105.331 348.551C104.884 349.239 104.696 349.995 104.573 350.794C104.543 350.987 104.476 351.11 104.58 350.801C104.816 350.109 105.073 349.427 105.429 348.786C105.999 347.76 106.571 346.736 107.142 345.709C107.265 345.487 107.309 345.261 107.369 345.019C107.402 344.889 107.033 345.517 106.968 345.61C106.051 346.913 105.12 348.342 104.436 349.778C103.945 350.809 103.544 351.883 103.05 352.908C102.64 353.759 102.153 354.507 101.852 355.409C101.459 356.59 100.624 357.678 100.624 358.986C100.624 359.508 101.018 358.076 101.17 357.789C101.932 356.352 102.326 354.665 103.247 353.318C103.49 352.961 103.883 351.756 103.883 352.188C103.883 352.72 103.273 353.366 103.019 353.795C102.48 354.706 101.987 355.644 101.458 356.561C100.535 358.162 99.3967 359.858 99.3967 361.775" stroke="white" stroke-width="2" stroke-linecap="round"/>
<path d="M118.199 320.191C118.079 320.76 117.744 321.235 117.461 321.727C117.329 321.958 117.238 322.21 117.107 322.443C116.971 322.682 116.837 322.928 116.724 323.178C116.538 323.59 116.27 323.952 116.067 324.357C115.923 324.647 115.707 324.882 115.584 325.183C115.518 325.342 115.469 325.505 115.418 325.67C115.328 325.965 115.151 326.236 114.995 326.5C114.778 326.868 114.481 327.217 114.311 327.611C114.185 327.904 113.996 328.167 113.895 328.468" stroke="white" stroke-width="2" stroke-linecap="round"/>
<path d="M128.9 337.306C129.639 336.798 130.273 336.28 131.083 335.893C131.473 335.707 131.831 335.37 132.237 335.235" stroke="white" stroke-width="2" stroke-linecap="round"/>
<path d="M504.497 160.774C504.412 161.284 504.145 161.831 504.01 162.342C503.927 162.656 503.743 163.124 503.584 163.393C503.258 163.943 502.741 164.744 502.55 165.316" stroke="white" stroke-width="2" stroke-linecap="round"/>
<path d="M454.205 182.729C454.993 182.007 456.646 181.058 457.774 180.998C458.201 180.976 457.315 181.382 457.186 181.431C456.623 181.646 456.081 182.073 455.503 182.188" stroke="white" stroke-width="2" stroke-linecap="round"/>
<path d="M481.785 169.859C482.969 168.782 484.432 168.044 485.57 166.938C485.905 166.613 486.222 166.501 485.654 166.986C484.643 167.85 483.584 168.817 482.331 169.318C481.726 169.56 481.324 170.244 480.757 170.495C480.558 170.584 479.532 171.147 479.946 170.94" stroke="white" stroke-width="2" stroke-linecap="round"/>
<path d="M325.02 196.735C325.669 196.717 326.313 196.581 326.964 196.573C327.468 196.566 327.973 196.573 328.477 196.573C329.413 196.573 330.35 196.573 331.286 196.573" stroke="white" stroke-width="2" stroke-linecap="round"/>
<path d="M98.9493 366.731C98.6828 366.819 98.5468 367.426 98.3835 367.646C98.1501 367.96 97.8519 368.314 97.7093 368.681C97.5984 368.966 97.4297 369.197 97.324 369.488C97.2928 369.574 97.1073 370.22 97.1073 369.933C97.1073 368.972 97.6095 368.152 97.8537 367.236C98.0953 366.33 97.4105 369.059 97.2397 369.981C96.9915 371.322 95.8552 372.235 95.2413 373.34C94.9377 373.887 94.608 374.37 94.3504 374.959C94.0553 375.634 93.5128 376.271 93.3391 377C93.2766 377.262 93.1289 377.524 92.9899 377.758C92.9366 377.848 92.7383 378.469 92.8455 378.342C93.4748 377.599 93.9251 376.584 94.242 375.676C94.4289 375.14 94.7887 374.677 95.0607 374.183C95.4962 373.391 95.8425 372.57 96.2405 371.763C96.8857 370.455 97.5227 368.939 98.4738 367.82C98.7887 367.45 99.1253 367.112 99.4429 366.731C99.7338 366.382 100.141 365.929 100.55 365.731C100.959 365.534 101.357 365.037 101.664 364.768C102.523 364.017 101.46 364.717 101.164 364.997C100.608 365.524 99.9583 366.196 99.7078 366.947" stroke="white" stroke-width="2" stroke-linecap="round"/>
<path d="M92.99 378.758C92.99 379.067 92.5979 379.492 92.4241 379.709C92.2507 379.926 92.1232 380.41 92.1232 380.708" stroke="white" stroke-width="2" stroke-linecap="round"/>
<path d="M84.7552 410.396C85.0234 410.337 85.3434 409.18 85.4656 408.904C85.5594 408.691 85.8142 408.45 85.8388 408.229C85.8603 408.036 85.9658 407.707 86.1096 407.579C86.4595 407.268 86.3805 406.697 86.3805 406.279C86.3805 406.113 86.3616 405.973 86.4889 405.846C86.7176 405.617 86.6699 405.417 86.82 405.129C87.3318 404.148 88.0523 402.95 88.1142 401.837C88.1316 401.523 88.3309 401.233 88.3309 400.916C88.3309 400.789 88.0573 401.89 87.9817 402.162C87.8585 402.605 87.5685 403.291 87.2473 403.63C86.6984 404.21 87.52 402.686 87.6085 402.493C87.7961 402.083 87.7265 401.538 87.9215 401.126C88.0891 400.773 88.287 400.441 88.4874 400.097C88.8004 399.56 88.981 399.248 88.981 398.61C88.981 398.195 89.0168 397.847 89.2218 397.479C89.3976 397.162 89.3002 396.753 89.4746 396.479C90.1848 395.363 88.592 398.975 88.2285 400.247C88.1644 400.472 88.2398 399.778 88.2887 399.549C88.4529 398.783 88.8781 398.08 89.1435 397.346C89.5067 396.342 90.2475 395.517 90.6664 394.553C90.8475 394.137 91.0227 393.721 91.1962 393.301C91.3459 392.939 91.4231 392.47 91.6296 392.145C91.7086 392.021 91.8348 391.593 91.7801 391.73C91.6529 392.048 91.146 392.421 90.9313 392.711C90.4797 393.322 90.1004 394.17 89.7394 394.854C89.6532 395.017 89.5336 395.385 89.4144 395.504C89.2434 395.675 89.4744 395.023 89.5288 394.788C89.6482 394.27 90.0993 393.665 90.3414 393.181C90.7341 392.395 91.2136 391.654 91.6296 390.881C92.3029 389.629 93.0352 388.411 93.4896 387.083C93.9526 385.73 94.601 384.434 95.2172 383.146C95.2476 383.083 95.5705 382.413 95.6386 382.472C96.0243 382.802 94.7867 384.374 94.6394 384.609C94.1705 385.354 93.7808 386.157 93.3873 386.944C93.2657 387.188 92.9594 387.934 93.0081 387.667C93.1409 386.936 93.6399 386.074 93.9712 385.421C94.5457 384.289 95.0627 383.133 95.6266 381.996C96.1347 380.972 96.491 379.825 97.1676 378.902C98.1787 377.523 98.7234 375.808 99.5754 374.339C100.018 373.576 100.529 372.448 101.231 371.877C101.489 371.668 101.582 371.31 101.869 371.167C102.072 371.065 101.902 370.835 102.092 370.74" stroke="#B0E0E6" stroke-width="2" stroke-linecap="round"/>
<line y1="-1.25" x2="333.399" y2="-1.25" transform="matrix(0.282801 -0.959179 0.948203 0.317665 83.4287 413.463)" stroke="#F0F8FF" stroke-width="2.5"/>
<line y1="-1.25" x2="333.399" y2="-1.25" transform="matrix(0.282801 -0.959179 0.948203 0.317665 83.4287 413.463)" stroke="#F0F8FF" stroke-width="2.5"/>
<line y1="-1.25" x2="333.399" y2="-1.25" transform="matrix(0.282801 -0.959179 0.948203 0.317665 83.4287 413.463)" stroke="#F0F8FF" stroke-width="2.5"/>
<line y1="-1.25" x2="333.399" y2="-1.25" transform="matrix(0.282801 -0.959179 0.948203 0.317665 439.143 413.463)" stroke="#F0F8FF" stroke-width="2.5"/>
<line x1="83.4287" y1="412.213" x2="439.143" y2="412.213" stroke="#F0F8FF" stroke-width="2.5"/>
<line x1="83.4287" y1="412.213" x2="439.143" y2="412.213" stroke="#F0F8FF" stroke-width="2.5"/>
<line x1="174.286" y1="94.7079" x2="532.572" y2="94.7079" stroke="#F0F8FF" stroke-width="2.5"/>
<path d="M81 411C186.774 40.3813 467.399 312.626 530 93" stroke="#E45F2B" stroke-width="4"/>
<path d="M530 95C424.226 466.784 143.601 193.683 81 414" stroke="#00008B" stroke-width="3.5"/>
</svg>
